<svg version="1.2" xmlns="http://www.w3.org/2000/svg" viewBox="0 0 512 512" width="512" height="512">
	<title>box-archive-solid-svg</title>
	<style>
		.s0 { fill: #fff7d6 } 
	</style>
	<path id="Layer" fill-rule="evenodd" class="s0" d="m32 160h448v272c0 26.5-21.5 48-48 48h-352c-26.5 0-48-21.5-48-48zm128 84c0 6.6 5.4 12 12 12h168c6.6 0 12-5.4 12-12v-8c0-6.6-5.4-12-12-12h-168c-6.6 0-12 5.4-12 12zm352-180v48c0 8.8-7.2 16-16 16h-480c-8.8 0-16-7.2-16-16v-48c0-17.7 14.3-32 32-32h448c17.7 0 32 14.3 32 32z"/>
</svg>