<svg version="1.2" xmlns="http://www.w3.org/2000/svg" viewBox="0 0 448 512" width="448" height="512">
	<title>calendar-check-svg</title>
	<style>
		.s0 { fill: #ffffff } 
	</style>
	<path id="Layer" fill-rule="evenodd" class="s0" d="m436 160h-424c-6.6 0-12-5.4-12-12v-36c0-26.5 21.5-48 48-48h48v-52c0-6.6 5.4-12 12-12h40c6.6 0 12 5.4 12 12v52h128v-52c0-6.6 5.4-12 12-12h40c6.6 0 12 5.4 12 12v52h48c26.5 0 48 21.5 48 48v36c0 6.6-5.4 12-12 12zm-424 32h424c6.6 0 12 5.4 12 12v260c0 26.5-21.5 48-48 48h-352c-26.5 0-48-21.5-48-48v-260c0-6.6 5.4-12 12-12zm333.3 95.9l-28.2-28.4c-4.6-4.7-12.2-4.7-16.9 0l-106.1 105.2l-46-46.4c-4.6-4.7-12.2-4.7-16.9-0.1l-28.4 28.2c-4.7 4.7-4.8 12.3-0.1 17l82.6 83.3c4.7 4.7 12.3 4.7 17 0l142.9-141.8c4.7-4.6 4.8-12.2 0.1-17z" />
</svg>