<svg version="1.2" xmlns="http://www.w3.org/2000/svg" viewBox="0 0 640 512" width="640" height="512">
	<title>cloud-upload-alt-svg</title>
	<style>
		.s0 { fill: #ffffff } 
	</style>
	<path id="Layer" fill-rule="evenodd" class="s0" d="m640 352c0 70.7-57.3 128-128 128h-368c-79.5 0-144-64.5-144-144c0-62.8 40.2-116.2 96.2-135.9c-0.1-2.7-0.2-5.4-0.2-8.1c0-88.4 71.6-160 160-160c59.3 0 111 32.2 138.7 80.2c15.2-10.2 33.6-16.2 53.3-16.2c53 0 96 43 96 96c0 12.2-2.3 23.9-6.4 34.6c58.4 11.8 102.4 63.5 102.4 125.4zm-235.3-91.3l-105.4-105.4c-6.2-6.2-16.4-6.2-22.6 0l-105.4 105.4c-10.1 10.1-3 27.3 11.3 27.3h65.4v112c0 8.8 7.2 16 16 16h48c8.8 0 16-7.2 16-16v-112h65.4c14.2 0 21.4-17.2 11.3-27.3z" />
</svg>