<svg version="1.2" xmlns="http://www.w3.org/2000/svg" viewBox="0 0 512 512" width="512" height="512">
	<title>comment-dots-svg</title>
	<style>
		.s0 { fill: #ffffff } 
	</style>
	<path id="Layer" fill-rule="evenodd" class="s0" d="m512 240c0 114.9-114.6 208-256 208c-38.4 0-74.7-7.1-107.4-19.4c-24.6 19.6-74.3 51.4-140.6 51.4c-3.2 0-6-1.8-7.3-4.8c-1.3-3-0.7-6.4 1.5-8.7c0.5-0.5 42.3-45.4 54.8-95.8c-35.6-35.7-57-81.1-57-130.7c0-114.9 114.6-208 256-208c141.4 0 256 93.1 256 208zm-352 0c0-17.7-14.3-32-32-32c-17.7 0-32 14.3-32 32c0 17.7 14.3 32 32 32c17.7 0 32-14.3 32-32zm128 0c0-17.7-14.3-32-32-32c-17.7 0-32 14.3-32 32c0 17.7 14.3 32 32 32c17.7 0 32-14.3 32-32zm128 0c0-17.7-14.3-32-32-32c-17.7 0-32 14.3-32 32c0 17.7 14.3 32 32 32c17.7 0 32-14.3 32-32z" />
</svg>