<svg version="1.2" xmlns="http://www.w3.org/2000/svg" viewBox="0 0 16 16" width="16" height="16">
	<title>diagram-3-fill-svg</title>
	<style>
		.s0 { fill: #ffffff } 
	</style>
	<path id="Layer" fill-rule="evenodd" class="s0" d="m6 3.5q0-0.3 0.1-0.6q0.1-0.2 0.3-0.5q0.3-0.2 0.5-0.3q0.3-0.1 0.6-0.1h1q0.3 0 0.6 0.1q0.2 0.1 0.5 0.3q0.2 0.3 0.3 0.5q0.1 0.3 0.1 0.6v1q0 0.3-0.1 0.6q-0.1 0.2-0.3 0.5q-0.3 0.2-0.5 0.3q-0.3 0.1-0.6 0.1v1h5.5q0.1 0 0.2 0q0.1 0.1 0.2 0.1q0 0.1 0.1 0.2q0 0.1 0 0.2v1q0 0.2-0.1 0.4q-0.2 0.1-0.4 0.1q-0.2 0-0.4-0.1q-0.1-0.2-0.1-0.4v-0.5h-5v0.5q0 0.2-0.1 0.4q-0.2 0.1-0.4 0.1q-0.2 0-0.4-0.1q-0.1-0.2-0.1-0.4v-0.5h-5v0.5q0 0.2-0.1 0.4q-0.2 0.1-0.4 0.1q-0.2 0-0.4-0.1q-0.1-0.2-0.1-0.4v-1q0-0.1 0-0.2q0.1-0.1 0.1-0.2q0.1 0 0.2-0.1q0.1 0 0.2 0h5.5v-1q-0.3 0-0.6-0.1q-0.2-0.1-0.5-0.3q-0.2-0.3-0.3-0.5q-0.1-0.3-0.1-0.6zm-6 8q0-0.3 0.1-0.6q0.1-0.2 0.3-0.5q0.3-0.2 0.5-0.3q0.3-0.1 0.6-0.1h1q0.3 0 0.6 0.1q0.2 0.1 0.5 0.3q0.2 0.3 0.3 0.5q0.1 0.3 0.1 0.6v1q0 0.3-0.1 0.6q-0.1 0.2-0.3 0.5q-0.3 0.2-0.5 0.3q-0.3 0.1-0.6 0.1h-1q-0.3 0-0.6-0.1q-0.2-0.1-0.5-0.3q-0.2-0.3-0.3-0.5q-0.1-0.3-0.1-0.6zm6 0q0-0.3 0.1-0.6q0.1-0.2 0.3-0.5q0.3-0.2 0.5-0.3q0.3-0.1 0.6-0.1h1q0.3 0 0.6 0.1q0.2 0.1 0.5 0.3q0.2 0.3 0.3 0.5q0.1 0.3 0.1 0.6v1q0 0.3-0.1 0.6q-0.1 0.2-0.3 0.5q-0.3 0.2-0.5 0.3q-0.3 0.1-0.6 0.1h-1q-0.3 0-0.6-0.1q-0.2-0.1-0.5-0.3q-0.2-0.3-0.3-0.5q-0.1-0.3-0.1-0.6zm6 0q0-0.3 0.1-0.6q0.1-0.2 0.3-0.5q0.3-0.2 0.5-0.3q0.3-0.1 0.6-0.1h1q0.3 0 0.6 0.1q0.2 0.1 0.5 0.3q0.2 0.3 0.3 0.5q0.1 0.3 0.1 0.6v1q0 0.3-0.1 0.6q-0.1 0.2-0.3 0.5q-0.3 0.2-0.5 0.3q-0.3 0.1-0.6 0.1h-1q-0.3 0-0.6-0.1q-0.2-0.1-0.5-0.3q-0.2-0.3-0.3-0.5q-0.1-0.3-0.1-0.6z" />
</svg>