<svg version="1.2" xmlns="http://www.w3.org/2000/svg" viewBox="0 0 512 512" width="512" height="512">
	<title>envelope-open-svg</title>
	<style>
		.s0 { fill: #ffffff } 
	</style>
	<path id="Layer" fill-rule="evenodd" class="s0" d="m512 464c0 26.5-21.5 48-48 48h-416c-26.5 0-48-21.5-48-48v-263.3c0-3.6 0.4-7.2 1.2-10.8c0.8-3.5 2.1-6.9 3.6-10.2c1.6-3.2 3.6-6.3 5.9-9.1c2.2-2.9 4.8-5.4 7.7-7.7c24.9-19.5 45.5-35.3 164.2-121.5c16.8-12.2 50.2-41.7 73.4-41.4c23.2-0.4 56.6 29.2 73.4 41.4c118.7 86.2 139.3 102 164.2 121.5c2.9 2.3 5.5 4.8 7.7 7.7c2.3 2.8 4.3 5.9 5.9 9.1c1.5 3.3 2.8 6.7 3.6 10.2c0.8 3.6 1.2 7.2 1.2 10.8zm-65.7-196.6c-2.5-3.7-7.7-4.6-11.3-1.9c-22.9 16.9-55.5 40.7-105.6 77.1c-16.8 12.3-50.2 41.8-73.4 41.4c-23.2 0.4-56.6-29.1-73.4-41.4c-50.1-36.4-82.7-60.2-105.6-77.1c-3.6-2.7-8.8-1.8-11.3 1.9l-9.1 13.2q-0.9 1.3-1.2 2.8q-0.4 1.5-0.1 3.1q0.3 1.5 1.1 2.8q0.8 1.4 2 2.3c22.9 16.9 55.5 40.7 105.3 76.8c20.3 14.8 56.6 47.9 92.3 47.6c35.7 0.3 72-32.7 92.3-47.6c49.8-36.1 82.4-59.9 105.3-76.8q1.2-0.9 2-2.3q0.8-1.3 1.1-2.8q0.3-1.6-0.1-3.1q-0.3-1.5-1.2-2.8z" />
</svg>