<svg version="1.2" xmlns="http://www.w3.org/2000/svg" viewBox="0 0 576 512" width="576" height="512">
	<title>exclamation-triangle-svg</title>
	<style>
		.s0 { fill: #ffffff } 
	</style>
	<path id="Layer" fill-rule="evenodd" class="s0" d="m569.5 440c18.5 32-4.7 72-41.6 72h-479.8c-37 0-60-40.1-41.6-72l239.9-416c18.5-32 64.7-32 83.2 0zm-281.5-86c-25.4 0-46 20.6-46 46 0 25.4 20.6 46 46 46 25.4 0 46-20.6 46-46 0-25.4-20.6-46-46-46zm-43.7-165.4l7.4 136c0.4 6.4 5.6 11.4 12 11.4h48.5c6.4 0 11.7-5 12-11.4l7.4-136c0.4-6.8-5.1-12.6-11.9-12.6h-63.4c-6.9 0-12.4 5.8-12 12.6z"/>
</svg>