<svg version="1.2" xmlns="http://www.w3.org/2000/svg" viewBox="0 0 576 512" width="576" height="512">
	<title>eye-svg</title>
	<style>
		.s0 { fill: #ffffff } 
	</style>
	<path id="Layer" fill-rule="evenodd" class="s0" d="m575.1 248.5q0.9 3.7 0.9 7.5q0 3.8-0.9 7.5q-0.9 3.7-2.6 7.1c-54.2 105.8-161.6 177.4-284.5 177.4c-122.9 0-230.3-71.6-284.5-177.4q-1.7-3.4-2.6-7.1q-0.9-3.7-0.9-7.5q0-3.8 0.9-7.5q0.9-3.7 2.6-7.1c54.2-105.8 161.6-177.4 284.5-177.4c122.9 0 230.3 71.6 284.5 177.4q1.7 3.4 2.6 7.1zm-232 140.6c17.5-7.3 33.4-17.9 46.7-31.3c13.4-13.3 24-29.2 31.3-46.7c7.2-17.5 10.9-36.2 10.9-55.1c0-58.2-35.1-110.8-88.9-133c-53.8-22.3-115.7-10-156.9 31.2c-41.2 41.2-53.5 103.1-31.2 156.9c22.2 53.8 74.8 88.9 133 88.9c18.9 0 37.6-3.7 55.1-10.9zm35.8-164.2c13.2 38.9 0.2 81.9-32.4 106.9c-32.6 25-77.5 26.4-111.6 3.5c-34.2-22.9-49.9-65-39.1-104.6c9.2 6.8 20.5 10 32 9.2c11.4-0.9 22.1-5.8 30.2-13.9c8.1-8.1 13-18.8 13.9-30.2c0.8-11.5-2.4-22.8-9.2-32q3.1-0.9 6.2-1.6q3.1-0.7 6.3-1.2q3.2-0.4 6.4-0.7q3.2-0.3 6.4-0.3c41.1-0.1 77.7 26 90.9 64.9z" />
</svg>