<svg version="1.2" xmlns="http://www.w3.org/2000/svg" viewBox="0 0 384 512" width="384" height="512">
	<title>file-pdf-solid-svg</title>
	<style>
		.s0 { fill: #fff7d6 } 
	</style>
	<path id="Layer" fill-rule="evenodd" class="s0" d="m256.9 160h127.1v304c0 26.5-21.5 48-48 48h-288c-26.5 0-48-21.5-48-48v-416c0-26.5 21.5-48 48-48h176v128c0 17.7 14.3 32 32.9 32zm127.1-32h-128v-128zm-96.4 184c-3.3 0.1-24.5 1.4-54.2 6.4c-11.7-10.8-21.6-23.6-29.4-38q1.6-4.9 3.1-9.8c1.7-6.8 8.9-38.5 8.9-62.6c0-22.1-17.9-40-40-40c-22 0-40 17.9-40 40c0 0.4 0.2 34.4 16.5 74.4c-8.4 23.1-18.5 46.3-30.3 69.1c-25.6 12.1-46.8 26.6-63 43.1c-7.5 7.7-11.2 17.6-11.2 29.5c0 22 17.9 39.9 39.9 39.9c12.9 0 24.2-6.2 32.5-16.7c8.8-12.2 22-32.1 36.4-58.4c18.8-7.6 40.4-14 64.3-19.1c16.2 11.4 34.5 20.6 54.6 27.4c5.4 1.8 11.2 2.8 17.2 2.8c24.2 0 43.1-19.3 43.1-44c0-24.3-19.7-44-44-44zm-110.5-53.8c-8.8-26.9-9.1-48.1-9.1-50.2c0-4.4 3.6-8 8-8c4.4 0 8 3.6 8 8c0 18.2-4.9 41.6-6.9 50.3zm-95 158.6c10.8-11 23.8-20.3 38-28.3c-11.3 19.4-20.8 33.3-25.7 40.2c-3.9 5.6-14.4 3.3-14.4-6.4c0-2.1 0.8-4.1 2.1-5.5zm97.5-115.6c7.7 13 17.4 26.1 29.8 38.1c-16.8 3.8-34.9 8.7-52.9 15.2c7.9-16.1 15.8-34 23.1-53.3zm106.3 65.6c-14.7-5-27.6-11.1-38.8-18.1c24.1-3.8 40.6-4.8 40.9-4.8h4c6.6 0 12 5.4 12 12.9c0 6.1-5 11.1-11.1 11.1c-2.4 0-4.9-0.4-7-1.1z"/>
</svg>