<svg version="1.2" xmlns="http://www.w3.org/2000/svg" viewBox="0 0 384 512" width="384" height="512">
	<title>file-archive-svg</title>
	<style>
		.s0 { fill: #fff7d6 } 
	</style>
	<path id="Layer" fill-rule="evenodd" class="s0" d="m248 160h136v328c0 13.3-10.7 24-24 24h-336c-13.3 0-24-10.7-24-24v-464c0-13.3 10.7-24 24-24h104.4v32h32v-32h63.6v136c0 13.2 10.8 24 24 24zm-68.4 193.4l-17.3-87.7c-1.1-5.6-6.1-9.7-11.8-9.7h-22.1v-32h32v-32h-32v-32h32v-32h-32v-32h32v-32h-32v32h-32v32h32v32h-32v32h32v32h-32v32l-19.6 97.1c-6.6 32.5 18.2 62.9 51.4 62.9c33 0 57.8-30.2 51.4-62.6zm204.4-231.5v6.1h-128v-128h6.1c6.4 0 12.5 2.5 17 7l97.9 98c4.5 4.5 7 10.6 7 16.9zm-288.1-57.9h32v-32h-32zm65 299c0 14.9-14.5 27-32.4 27c-17.9 0-32.5-12-32.5-27c0-14.9 14.5-27 32.4-27c17.9 0 32.5 12.1 32.5 27z" />
</svg>