<svg version="1.2" xmlns="http://www.w3.org/2000/svg" viewBox="0 0 512 512" width="512" height="512">
	<title>flag-solid-svg</title>
	<style>
		.s0 { fill: #fff7d6 } 
	</style>
	<path id="Layer" fill-rule="evenodd" class="s0" d="m64 496c0 8.8-7.3 16-16 16h-32c-8.8 0-16-7.2-16-16v-464c0-17.8 14.3-32 32-32c17.8 0 32 14.3 32 32zm412.3-496c-6.4 0-13 1.4-19.3 4.2c-45.7 20.9-79.6 28-107.8 28c-60 0-94.8-31.9-163.9-31.9c-24.4 0-53.7 4.6-89.3 15.4v350.6c32-10 59.9-14.2 84.8-14.2c73.7 0 124.9 31.8 198.6 31.8c32 0 68.1-5.9 111.1-23.1c13.6-4.9 21.5-16.4 21.5-28.7v-301.4c0-19.6-16.7-30.7-35.7-30.7z"/>
</svg>