<svg version="1.2" xmlns="http://www.w3.org/2000/svg" viewBox="0 0 448 512" width="448" height="512">
	<title>floppy-disk-solid-svg</title>
	<style>
		.s0 { fill: #fff7d6 } 
	</style>
	<path id="Layer" fill-rule="evenodd" class="s0" d="m448 163.9v252.1c0 35.4-28.6 64-64 64h-320c-35.4 0-64-28.6-64-64v-320c0-35.4 28.6-64 64-64h252.1c11 0 26.2 6.3 33.1 13.2l83.9 83.9c8.6 8.6 14.9 23.8 14.9 34.8zm-160 188.1c0-35.3-28.7-64-64-64c-35.3 0-64 28.7-64 64c0 35.3 28.7 64 64 64c35.3 0 64-28.7 64-64zm32-240c0-8.8-7.2-16-16-16h-224c-8.8 0-16 7.2-16 16v96c0 8.8 7.2 16 16 16h224c8.8 0 16-7.2 16-16z"/>
</svg>