<svg version="1.2" xmlns="http://www.w3.org/2000/svg" viewBox="0 0 512 512" width="512" height="512">
	<title>hard-drive-solid-svg</title>
	<style>
		.s0 { fill: #fff7d6 } 
	</style>
	<path id="Layer" fill-rule="evenodd" class="s0" d="m512 336v96c0 26.5-21.5 48-48 48h-416c-26.5 0-48-21.5-48-48v-96c0-26.5 21.5-48 48-48h416c26.5 0 48 21.5 48 48zm-160 48c0-17.6-14.4-32-32-32c-17.6 0-32 14.4-32 32c0 17.6 14.4 32 32 32c17.6 0 32-14.4 32-32zm96 0c0-17.6-14.4-32-32-32c-17.6 0-32 14.4-32 32c0 17.6 14.4 32 32 32c17.6 0 32-14.4 32-32zm64-304v192.4c-13.4-10.1-29.9-16.4-48-16.4h-416c-18.1 0-34.6 6.3-48 16.4v-192.4c0-26.5 21.5-48 48-48h416c26.5 0 48 21.5 48 48z"/>
</svg>