<svg version="1.2" xmlns="http://www.w3.org/2000/svg" viewBox="0 0 512 512" width="512" height="512">
	<title>info-circle-svg</title>
	<style>
		.s0 { fill: #ffffff } 
	</style>
	<path id="Layer" fill-rule="evenodd" class="s0" d="m504 256c0 137-111 248-248 248c-137 0-248-111-248-248c0-136.9 111-248 248-248c137 0 248 111.1 248 248zm-290-96c0 23.2 18.8 42 42 42c23.2 0 42-18.8 42-42c0-23.2-18.8-42-42-42c-23.2 0-42 18.8-42 42zm98 188c0-6.6-5.4-12-12-12h-12v-100c0-6.6-5.4-12-12-12h-64c-6.6 0-12 5.4-12 12v24c0 6.6 5.4 12 12 12h12v64h-12c-6.6 0-12 5.4-12 12v24c0 6.6 5.4 12 12 12h88c6.6 0 12-5.4 12-12z" />
</svg>