<svg version="1.2" xmlns="http://www.w3.org/2000/svg" viewBox="0 0 576 512" width="576" height="512">
	<title>share-square-svg</title>
	<style>
		.s0 { fill: #ffffff } 
	</style>
	<path id="Layer" fill-rule="evenodd" class="s0" d="m568.5 177.4l-144 136c-15.2 14.4-40.5 3.7-40.5-17.4v-72c-144.6 1-205.6 35.1-164.8 171.4c4.5 14.9-12.8 26.5-25 17.3c-38.9-29.6-74.2-86.2-74.2-143.4c0-143.9 117.6-172.5 264-173.3v-72c0-21.2 25.3-31.8 40.5-17.4l144 136c10 9.4 10 25.4 0 34.8zm-170.7 189.9q4.3 0.6 8.6 0.7q4.4 0.1 8.7-0.3q4.3-0.5 8.6-1.4q4.2-1 8.3-2.4c7.8-2.8 16 3 16 11.3v88.8c0 26.5-21.5 48-48 48h-352c-26.5 0-48-21.5-48-48v-352c0-26.5 21.5-48 48-48h121c12.6 0 16.7 16.8 5.6 22.6c-18.8 9.8-36.1 22.1-51 37.7q-0.9 0.9-1.9 1.6q-1 0.7-2.1 1.1q-1.1 0.5-2.3 0.8q-1.2 0.2-2.4 0.2h-50.9v320h320v-68.9c0-7.3 6.5-12.9 13.8-11.8z" />
</svg>