<svg version="1.2" xmlns="http://www.w3.org/2000/svg" viewBox="0 0 448 512" width="448" height="512">
	<title>user-svg</title>
	<style>
		.s0 { fill: #ffffff } 
	</style>
	<path id="Layer" class="s0" d="m96 128c0-70.7 57.3-128 128-128c70.7 0 128 57.3 128 128c0 70.7-57.3 128-128 128c-70.7 0-128-57.3-128-128zm352 294.4v41.6c0 26.5-21.5 48-48 48h-352c-26.5 0-48-21.5-48-48v-41.6c0-74.2 60.2-134.4 134.4-134.4h16.7c22.3 10.2 46.9 16 72.9 16c26 0 50.7-5.8 72.9-16h16.7c74.2 0 134.4 60.2 134.4 134.4z" />
</svg>